<svg width="33" height="45" viewBox="0 0 33 45" fill="none" xmlns="http://www.w3.org/2000/svg">
<path d="M16.5 10.25V16.375L24.6667 8.20829L16.5 0.041626V6.16663C7.47582 6.16663 0.166656 13.4758 0.166656 22.5C0.166656 25.7054 1.10582 28.6862 2.69832 31.1975L5.67915 28.2166C4.73443 26.4597 4.24319 24.4948 4.24999 22.5C4.24999 15.742 9.74207 10.25 16.5 10.25ZM30.3017 13.8025L27.3208 16.7833C28.2191 18.4983 28.75 20.4379 28.75 22.5C28.75 29.2579 23.2579 34.75 16.5 34.75V28.625L8.33332 36.7916L16.5 44.9583V38.8333C25.5242 38.8333 32.8333 31.5241 32.8333 22.5C32.8333 19.2945 31.8941 16.3137 30.3017 13.8025Z" fill="white"/>
</svg>
