<svg width="34" height="42" viewBox="0 0 34 42" fill="none" xmlns="http://www.w3.org/2000/svg">
<path d="M16.9398 0C8.04641 0 0 6.81828 0 17.3633C0 24.0969 5.18782 32.0163 15.5423 41.1426C16.3469 41.8414 17.5539 41.8414 18.3585 41.1426C28.6918 32.0163 33.8796 24.0969 33.8796 17.3633C33.8796 6.81828 25.8332 0 16.9398 0ZM16.9398 21.1748C14.6106 21.1748 12.7049 19.269 12.7049 16.9398C12.7049 14.6106 14.6106 12.7049 16.9398 12.7049C19.269 12.7049 21.1748 14.6106 21.1748 16.9398C21.1748 19.269 19.269 21.1748 16.9398 21.1748Z" fill="white"/>
</svg>
